:SAMPLES-PER-SECOND 30
:FULLY-SPECIFIED
:DEGREES
478
root  -18.0897 39.2358 -6.95839 -4.71884 -83.3102 -10.292
RightUpLeg  -10.7118 10.9962 -2.9647
RightLeg  24.5894 0.58154 0.282855
RightFoot  -1.88491 -0.68415 8.14462
RightToes  5.82063e-011 0 -3.6325e-017
Spine  12.5372 -1.42902 0.945579
Spine1  8.51225 -1.90214 -1.06081
HEad  6.20448 -0.590295 -0.781483
LeftShoulder1  0.0444887 3.37699 -28.8577
LeftArm  -9.16487 2.47674 -34.809
LeftForeArm  43.2495 -77.1455 -55.6984
LeftHand  0.00197451 4.61437 -4.45685
RightShoulder  -0.442476 -4.83737 26.2795
RightArm  -6.93638 -11.0717 37.0783
RightForeArm  63.0949 78.559 93.6744
RightHand  -0.242412 0.715502 -4.69928
LeftUpLeg  10.9915 8.56684 -2.01689
LeftLeg  17.4794 -6.03409 -2.04027
LeftFoot  -13.0366 0.261925 12.2778
LeftToes  1.81573e-012 2.54609e-010 -3.45981e-011
479
root  -19.3632 39.1877 -6.99221 -5.75975 -84.2021 -8.44981
RightUpLeg  -10.7342 9.59649 -2.584
RightLeg  11.846 0.995166 -0.990233
RightFoot  -1.93945 -0.692957 8.24543
RightToes  5.82063e-011 0 -3.6325e-017
Spine  11.571 -0.849141 -0.110816
Spine1  8.56705 -1.53527 0.382671
HEad  6.66144 -1.06609 -1.06631
LeftShoulder1  0.0815392 3.27068 -28.8272
LeftArm  -9.17792 2.09081 -34.9025
LeftForeArm  42.5064 -77.0865 -55.4957
LeftHand  -0.0049897 4.74166 -3.88249
RightShoulder  -0.406698 -4.73491 26.0728
RightArm  -7.42849 -11.1215 37.4034
RightForeArm  64.9397 78.5664 94.8624
RightHand  -0.204563 0.574338 -4.06027
LeftUpLeg  12.8135 9.54231 -1.15308
LeftLeg  16.7641 -6.32014 -2.72147
LeftFoot  -14.5544 0.435949 12.3696
LeftToes  1.81573e-012 2.54609e-010 -3.45981e-011
480
root  -20.6234 39.0706 -7.08983 -15.1912 -85.449 1.82367
RightUpLeg  -10.7112 0.417078 -0.302288
RightLeg  0.843874 8.70417 -3.22355
RightFoot  -2.05475 -0.697161 8.43231
RightToes  5.82063e-011 0 -3.6325e-017
Spine  10.9873 0.130398 -1.86154
Spine1  8.23536 -0.820611 1.91984
HEad  7.14146 -0.89528 -0.957436
LeftShoulder1  0.0793394 3.27706 -28.8597
LeftArm  -8.9483 1.80391 -34.8027
LeftForeArm  42.8177 -77.1213 -55.6837
LeftHand  -0.006757 4.84131 -3.77612
RightShoulder  -0.408434 -4.74798 25.9726
RightArm  -7.60936 -11.4526 37.5731
RightForeArm  65.9466 78.5127 96.4695
RightHand  -0.237147 0.773597 -4.56649
LeftUpLeg  14.7206 10.3328 -0.979622
LeftLeg  15.7777 -6.02587 -3.36617
LeftFoot  -16.0245 0.58662 11.9582
LeftToes  1.81573e-012 2.54609e-010 -3.45981e-011
481
root  -21.9607 38.8016 -7.18795 -32.0453 -86.2945 19.4996
RightUpLeg  -11.7942 -1.05999 0.0809823
RightLeg  -4.57918 7.70043 -2.96711
RightFoot  -3.51542 -0.691215 9.68866
RightToes  5.82063e-011 0 -3.6325e-017
Spine  9.98575 1.06894 -4.29267
Spine1  8.12886 -0.346277 3.81125
HEad  7.31951 -1.20204 -0.892915
LeftShoulder1  0.0497717 3.36273 -29.1188
LeftArm  -8.96048 1.39607 -34.7234
LeftForeArm  42.4826 -77.0671 -55.3152
LeftHand  -0.00380203 4.78412 -3.92023
RightShoulder  -0.409128 -4.7564 26.0581
RightArm  -7.53639 -11.2079 37.4418
RightForeArm  66.0634 78.4953 96.8285
RightHand  -0.243296 0.8144 -4.66161
LeftUpLeg  16.192 10.9072 -1.31368
LeftLeg  15.9467 -5.69185 -3.65151
LeftFoot  -18.1445 0.796148 11.4847
LeftToes  1.81573e-012 2.54609e-010 -3.45981e-011
482
root  -23.3685 38.5174 -7.1549 -36.8852 -86.9264 24.4528
RightUpLeg  -12.6787 -0.197164 0.968911
RightLeg  -3.56473 3.69837 -2.61139
RightFoot  -3.64486 -0.58871 8.49424
RightToes  5.82063e-011 0 -3.6325e-017
Spine  9.63162 1.236 -3.89305
Spine1  8.27492 -0.108517 3.86678
HEad  7.80759 -0.940735 -1.10832
LeftShoulder1  0.0227403 3.43945 -29.279
LeftArm  -8.91706 1.23275 -34.622
LeftForeArm  41.9593 -76.9717 -54.6468
LeftHand  0.00286609 4.54133 -4.14792
RightShoulder  -0.409782 -4.74571 26.0197
RightArm  -7.56601 -10.9323 37.5984
RightForeArm  64.558 78.5066 95.6655
RightHand  -0.262061 0.381908 -5.33327
LeftUpLeg  18.3821 11.4374 -0.916783
LeftLeg  16.3957 -5.65979 -3.258
LeftFoot  -20.3759 1.01208 11.2387
LeftToes  1.81573e-012 2.54609e-010 -3.45981e-011
483
root  -24.8899 38.2304 -6.97462 -22.2084 -87.0475 9.08859
RightUpLeg  -12.2246 -0.239548 1.94522
RightLeg  0.974935 -2.155 -1.35811
RightFoot  -2.24667 -0.476996 5.57949
RightToes  5.82063e-011 0 -3.6325e-017
Spine  9.83206 0.452873 -1.50736
Spine1  8.85996 -0.566297 2.74587
HEad  7.98672 -0.850001 -1.18461
LeftShoulder1  -0.0202664 3.5608 -29.5327
LeftArm  -9.0842 1.74882 -34.3005
LeftForeArm  42.7149 -77.1446 -55.9831
LeftHand  -0.00669617 4.95156 -3.78439
RightShoulder  -0.399281 -4.71588 25.977
RightArm  -7.31342 -10.4737 37.652
RightForeArm  63.8337 78.5738 93.9394
RightHand  -0.234064 0.259199 -4.86757
LeftUpLeg  21.4472 10.9659 -0.146066
LeftLeg  16.984 -5.48496 -2.27563
LeftFoot  -22.4896 1.1177 10.0424
LeftToes  1.81573e-012 2.54609e-010 -3.45981e-011
484
root  -26.4802 38.0294 -6.78698 -4.03745 -85.4596 -9.43573
RightUpLeg  -11.8768 -1.16981 2.60473
RightLeg  6.01952 -5.35254 -0.725391
RightFoot  -0.659875 -0.222815 3.19338
RightToes  5.82063e-011 0 -3.6325e-017
Spine  9.01665 -0.785279 0.584609
Spine1  10.0076 -1.69944 2.39035
HEad  8.19423 -0.811033 -1.37279
LeftShoulder1  -0.033863 3.59915 -29.4613
LeftArm  -8.76797 2.33365 -34.2314
LeftForeArm  42.9499 -77.1735 -56.162
LeftHand  0.000664012 4.56961 -3.89424
RightShoulder  -0.403559 -4.72918 25.9486
RightArm  -7.15884 -10.9016 37.3223
RightForeArm  64.5073 78.5311 95.1785
RightHand  -0.241445 0.230621 -5.03033
LeftUpLeg  23.7754 9.36386 0.824564
LeftLeg  18.2029 -5.91211 -1.8674
LeftFoot  -23.4668 1.03801 8.3973
LeftToes  1.81573e-012 2.54609e-010 -3.45981e-011
485
root  -28.0341 38.0391 -6.66808 12.4577 -83.9295 -25.6687
RightUpLeg  -12.7487 -2.39304 4.2558
RightLeg  9.94363 -5.75351 -0.474876
RightFoot  6.91976 0.433322 -2.64547
RightToes  5.82063e-011 0 -3.6325e-017
Spine  7.8359 -1.52066 3.9954
Spine1  10.9497 -2.12732 2.26314
HEad  8.74604 -1.74219 -1.195
LeftShoulder1  -0.00539567 3.51878 -29.9234
LeftArm  -7.47855 2.54946 -33.9066
LeftForeArm  42.0835 -77.0567 -55.42
LeftHand  0.000802155 4.51826 -3.83764
RightShoulder  -0.505543 -5.02323 26.4608
RightArm  -7.12053 -12.1024 36.0298
RightForeArm  66.5077 78.4228 98.2418
RightHand  -0.272275 0.572429 -5.38329
LeftUpLeg  25.0201 6.74463 2.18813
LeftLeg  19.6651 -5.75423 -1.93365
LeftFoot  -22.74 0.670188 5.40671
LeftToes  1.81573e-012 2.54609e-010 -3.45981e-011
486
root  -29.6627 37.8912 -6.66529 28.9787 -83.7595 -41.7218
RightUpLeg  -14.3019 -2.31423 6.65338
RightLeg  16.1429 -4.0769 -1.29712
RightFoot  7.09939 0.438422 -2.41769
RightToes  5.82063e-011 0 -3.6325e-017
Spine  7.16938 -1.47551 6.60082
Spine1  10.6299 -1.72783 2.10297
HEad  9.40926 -1.40637 -1.51674
LeftShoulder1  -0.0379862 3.60769 -30.259
LeftArm  -6.65701 3.69454 -33.9489
LeftForeArm  41.8812 -76.983 -54.7959
LeftHand  0.000999697 4.49187 -3.98385
RightShoulder  -0.486302 -4.96191 26.5075
RightArm  -7.13575 -13.123 35.3303
RightForeArm  66.2132 78.5018 96.7892
RightHand  -0.225292 0.536809 -4.49404
LeftUpLeg  24.1951 6.76479 4.95974
LeftLeg  25.6764 -7.33258 -3.51943
LeftFoot  -21.5201 0.207939 0.842138
LeftToes  1.81573e-012 2.54609e-010 -3.45981e-011
487
root  -31.1663 37.8246 -6.48101 42.1357 -83.1007 -54.9282
RightUpLeg  -14.545 -3.59478 8.53072
RightLeg  21.0907 -2.4659 -1.29217
RightFoot  4.7663 0.644154 -4.32739
RightToes  5.82063e-011 0 -3.6325e-017
Spine  6.94691 -2.1177 10.6531
Spine1  11.0718 -1.44304 0.661291
HEad  9.76734 -0.87176 -1.83245
LeftShoulder1  -0.0936403 3.75754 -30.8265
LeftArm  -6.17228 4.95529 -34.0098
LeftForeArm  41.1949 -76.8906 -54.259
LeftHand  -0.00518087 4.28573 -3.14899
RightShoulder  -0.481373 -4.9435 26.5718
RightArm  -6.65479 -12.9925 34.6719
RightForeArm  61.9666 78.565 92.6678
RightHand  -0.243042 0.598482 -4.79395
LeftUpLeg  21.4519 6.46184 7.48678
LeftLeg  34.9932 -8.96036 -6.36917
LeftFoot  -15.9958 -0.0762255 -5.42641
LeftToes  1.81573e-012 2.54609e-010 -3.45981e-011
